<svg version="1.1" id="Capa_1" xmlns="http://www.w3.org/2000/svg" x="0" y="0" viewBox="0 0 286.3 286.6" style="enable-background:new 0 0 286.3 286.6" xml:space="preserve"><style>.st0{fill:#161616}</style><switch><g><path class="st0" d="M166.8 101.3H119c-.5 5.6-1.4 11.2-2.8 16.6h53.5c-1.3-5.5-2.3-11-2.9-16.6zM175.5 25.4c-4.1-14-17.8-23.8-32.5-23.8-15.6 0-29.7 10.9-32.9 25.9-1.2 5.4-1.1 10.8.3 16l6.4 23.8c1.4 5.3 2.3 11.2 2.6 17.4h47.1c.3-5.3 1-10.4 2.2-14.9l7.1-26.3c1.5-5.9 1.4-12.2-.3-18.1zM178.6 140.3c-1.1-1.8-2-3.8-2.9-5.8h-65.2c-.8 1.7-1.6 3.4-2.5 5-20.2 34-24.2 81.9-10.9 115l8.1 20.2c2.5 6.3 8.6 10.4 15.4 10.4h45c6.8 0 12.9-4.1 15.4-10.5l6.1-15.4c14.3-35.6 11.1-85.9-8.5-118.9zM268.5 153c-.3-.6-.6-1.3-.9-1.9h-65.8c13.6 35.2 14.5 80 .8 114.3l-5.3 13.1c4.5 4 10.1 6.5 16.4 6.5h35.7c10.2 0 18.4-6.1 22.3-15.7l4.9-12.2c13.3-33.3 10.3-73-8.1-104.1zM231.6 34.9c-20.6 0-37.4 16.8-37.4 37.4 0 3.3.4 6.5 1.3 9.7l5.2 19.4h61l5.2-19.4c.8-3.2 1.3-6.4 1.3-9.7-.1-20.7-16-37.4-36.6-37.4zM259.3 117.9h-56.2c.1 5.5-.6 11.1-1.9 16.6h60.1c-1.4-5.5-2.2-11-2-16.6z"/><path class="st0" d="M81.6 260.6C68.7 228.3 70.3 186 84.2 151h-66c-.4.7-.6 1.4-1 2-18.7 30.3-21 71.4-6.3 108.1l3.3 8.2C18 278.8 27.5 285 37.7 285h35.7c5.9 0 11.3-2.3 15.7-5.9l-7.5-18.5zM55.5 34.9c-20.6 0-37.8 16.8-37.8 37.4 0 3.3.4 6.6 1.3 9.7l5.2 19.4h62.2L91.6 82c.8-3.2 1.3-6.4 1.3-9.7 0-20.7-16.8-37.4-37.4-37.4zM85.8 134.5c-1.3-5.4-1.9-11-1.8-16.6H26.6c.1 5.6-.6 11.2-1.9 16.6h61.1z"/></g></switch></svg>